#!OML:ASF F:\VICON\USERDATA\INSTALL\rory3\rory3.ASF
:FULLY-SPECIFIED
:DEGREES
46
root 0.342222 17.9195 -20.0404 0.187624 -7.47939 -6.55958
lowerback 11.3721 1.89257 5.51432
upperback 0.0376667 3.40734 2.60639
thorax -6.1886 1.53947 -0.914758
lowerneck -15.4128 -2.79062 -1.45567
upperneck 20.4991 -3.54704 0.143835
head 9.00043 -1.76101 -0.141987
rclavicle -2.57675e-014 -2.22639e-014
rhumerus -21.7625 -7.5932 -82.7636
rradius 33.0644
rwrist -3.01214
rhand -19.7407 22.4694
rfingers 7.12502
rthumb 6.59011 -7.40809
lclavicle -2.57675e-014 -2.22639e-014
lhumerus -36.6442 5.71019 82.3284
lradius 24.1864
lwrist 2.95882
lhand -29.2105 22.5695
lfingers 7.12502
lthumb -2.55496 52.5339
rfemur 2.4413 6.16415 34.5913
rtibia 24.5552
rfoot -20.5412 -5.69519
rtoes 8.10524
lfemur -29.5577 -0.514015 -12.1289
ltibia 28.1912
lfoot 2.46028 2.99813
ltoes -1.22544
47
root 0.343541 17.8991 -19.8594 0.265045 -7.5784 -6.67084
lowerback 11.2843 2.02546 5.68221
upperback 0.0210259 3.59592 2.54654
thorax -6.13299 1.62717 -1.09695
lowerneck -15.2581 -2.89879 -1.32529
upperneck 20.3434 -3.71042 0.0567949
head 8.91519 -1.83787 -0.208965
rclavicle -5.4554e-014 3.97569e-016
rhumerus -21.5414 -7.75688 -82.7902
rradius 33.4146
rwrist -2.96845
rhand -19.3838 22.7184
rfingers 7.12502
rthumb 6.93467 -7.148
lclavicle -5.4554e-014 3.97569e-016
lhumerus -36.6859 5.45392 82.3748
lradius 23.7209
lwrist 3.22637
lhand -29.1942 21.0641
lfingers 7.12502
lthumb -2.53927 51.0287
rfemur 3.35657 6.00764 34.6991
rtibia 23.8481
rfoot -20.5028 -5.74417
rtoes 6.87933
lfemur -29.2267 -1.76535 -11.4959
ltibia 25.3201
lfoot 2.33122 3.62932
ltoes -0.170721
48
root 0.343123 17.9079 -19.6771 0.339201 -7.80595 -6.81498
lowerback 11.0825 2.15928 5.85322
upperback 0.201627 3.76604 2.52083
thorax -5.8053 1.71753 -1.23137
lowerneck -15.6413 -2.98157 -1.18879
upperneck 20.2016 -3.83644 -0.0114886
head 8.93289 -1.89244 -0.274838
rclavicle -5.60324e-014 -1.61016e-014
rhumerus -20.9676 -7.5142 -82.8824
rradius 33.7038
rwrist -3.22141
rhand -19.3446 22.6801
rfingers 7.12502
rthumb 6.97254 -7.18505
lclavicle -5.60324e-014 -1.61016e-014
lhumerus -36.3605 5.50625 82.3872
lradius 23.2152
lwrist 3.25858
lhand -29.1312 20.2742
lfingers 7.12502
lthumb -2.4784 50.2396
rfemur 4.23002 5.82556 34.7993
rtibia 23.1671
rfoot -20.2669 -5.91417
rtoes 4.83167
lfemur -28.624 -2.50431 -11.0246
ltibia 22.6015
lfoot 1.58118 4.09796
ltoes -1.93533
49
root 0.345514 17.8957 -19.4926 0.446991 -7.89367 -6.93996
lowerback 10.9937 2.18724 6.04543
upperback 0.187146 3.81929 2.49562
thorax -5.75367 1.73928 -1.36831
lowerneck -15.7149 -3.00315 -1.078
upperneck 20.0874 -3.87452 -0.0892996
head 8.90314 -1.9104 -0.324088
rclavicle 3.92227e-014 3.97569e-014
rhumerus -20.6696 -7.22999 -83.0031
rradius 34.0141
rwrist -3.31286
rhand -19.6248 22.2919
rfingers 7.12502
rthumb 6.70201 -7.58205
lclavicle 3.92227e-014 3.97569e-014
lhumerus -36.5738 5.5683 82.3901
lradius 23.1604
lwrist 3.351
lhand -29.1666 21.0924
lfingers 7.12502
lthumb -2.5126 51.0574
rfemur 5.05938 5.79382 34.9119
rtibia 22.5932
rfoot -20.0665 -6.1699
rtoes 2.99841
lfemur -28.2501 -3.52476 -10.4743
ltibia 20.1014
lfoot 0.662054 4.89598
ltoes -5.21423
50
root 0.351566 17.8735 -19.3098 0.466382 -7.88317 -6.98885
lowerback 11.1268 2.20652 6.18057
upperback 0.128867 3.87353 2.44177
thorax -5.87449 1.75629 -1.51561
lowerneck -15.9401 -2.97791 -0.966015
upperneck 20.2923 -3.85958 -0.125351
head 9.01137 -1.89689 -0.359092
rclavicle 2.94698e-014 2.3059e-014
rhumerus -20.5613 -7.10376 -83.0741
rradius 34.3818
rwrist -3.43764
rhand -19.8171 22.4893
rfingers 7.12502
rthumb 6.51636 -7.39042
lclavicle 2.94698e-014 2.3059e-014
lhumerus -36.8495 5.81139 82.2207
lradius 23.1241
lwrist 3.0844
lhand -29.1003 22.0998
lfingers 7.12502
lthumb -2.44862 52.0655
rfemur 5.93901 5.80738 34.9333
rtibia 22.0723
rfoot -19.9762 -6.2318
rtoes 2.29096
lfemur -28.0826 -4.66144 -9.99833
ltibia 18.134
lfoot -0.793609 5.8478
ltoes -3.74247
51
root 0.357536 17.8588 -19.1215 0.3979 -8.17781 -6.99694
lowerback 11.2513 2.35132 6.23468
upperback 0.139637 4.07855 2.3812
thorax -5.91103 1.85307 -1.64578
lowerneck -16.031 -2.95883 -0.879148
upperneck 20.3739 -3.85889 -0.110243
head 9.05455 -1.88731 -0.370643
rclavicle 3.46382e-014 2.94201e-014
rhumerus -20.4663 -7.10332 -83.0863
rradius 34.6658
rwrist -3.50909
rhand -20.0032 22.6323
rfingers 7.12502
rthumb 6.33672 -7.25295
lclavicle 3.46382e-014 2.94201e-014
lhumerus -36.9632 5.99615 82.0883
lradius 22.8318
lwrist 2.92476
lhand -29.2152 21.4832
lfingers 7.12502
lthumb -2.55957 51.4476
rfemur 6.76089 5.93278 34.8592
rtibia 21.9197
rfoot -20.005 -6.06651
rtoes 1.6768
lfemur -27.6527 -5.87075 -9.51092
ltibia 16.3396
lfoot -1.94107 7.12754
ltoes -4.43395
52
root 0.36698 17.8485 -18.926 0.392931 -8.39784 -6.89221
lowerback 11.1365 2.39393 6.14153
upperback 0.0700578 4.11891 2.39544
thorax -5.92502 1.87443 -1.58115
lowerneck -15.5144 -2.94868 -1.09208
upperneck 20.1075 -3.80909 -0.0408207
head 8.87448 -1.8763 -0.294168
rclavicle -1.7754e-014 -5.96354e-016
rhumerus -20.4739 -6.67277 -83.0755
rradius 34.8148
rwrist -3.64559
rhand -20.3008 22.4059
rfingers 7.12502
rthumb 6.04939 -7.48772
lclavicle -1.7754e-014 -5.96354e-016
lhumerus -37.435 6.35565 82.0358
lradius 22.6841
lwrist 2.68521
lhand -29.0976 20.5753
lfingers 7.12502
lthumb -2.44601 50.541
rfemur 7.34596 5.90152 34.6118
rtibia 22.1515
rfoot -19.8431 -5.8176
rtoes 1.87257
lfemur -27.1514 -6.71581 -9.37031
ltibia 14.7486
lfoot -3.01823 7.98724
ltoes -1.47572
53
root 0.374376 17.823 -18.7368 0.491299 -8.44021 -6.84628
lowerback 11.1047 2.42737 6.10758
upperback -0.117272 4.16671 2.36632
thorax -6.10332 1.8898 -1.60347
lowerneck -15.0684 -2.92961 -1.13527
upperneck 19.9304 -3.78793 0.0132079
head 8.73456 -1.86651 -0.256879
rclavicle -1.15544e-015 1.07344e-014
rhumerus -20.5576 -6.70277 -83.0399
rradius 34.8214
rwrist -3.53695
rhand -20.4059 22.4537
rfingers 7.12502
rthumb 5.94792 -7.44286
lclavicle -1.15544e-015 1.07344e-014
lhumerus -37.8286 6.71154 81.8173
lradius 22.321
lwrist 2.05729
lhand -29.0103 19.6319
lfingers 7.12502
lthumb -2.36162 49.5986
rfemur 7.75906 5.82544 34.4981
rtibia 22.5204
rfoot -19.3325 -5.82376
rtoes 1.86828
lfemur -26.9695 -6.65941 -9.53312
ltibia 13.6963
lfoot -5.99576 8.75987
ltoes 2.40316
54
root 0.382237 17.7813 -18.5545 0.547317 -8.52671 -6.78272
lowerback 11.1989 2.53816 6.11239
upperback -0.149697 4.31656 2.24519
thorax -6.17069 1.95829 -1.76178
lowerneck -15.3398 -2.99214 -0.941258
upperneck 20.0235 -3.91092 -0.0292488
head 8.81118 -1.91242 -0.323468
rclavicle 3.84648e-014 0
rhumerus -20.4127 -6.97528 -83.0692
rradius 34.9034
rwrist -3.42227
rhand -20.2568 22.9983
rfingers 7.12502
rthumb 6.09186 -6.89412
lclavicle 3.84648e-014 0
lhumerus -37.7027 6.72191 81.6806
lradius 21.7529
lwrist 1.85269
lhand -28.9186 19.1132
lfingers 7.12502
lthumb -2.27312 49.0808
rfemur 8.15536 5.8319 34.3673
rtibia 22.9624
rfoot -19.1391 -5.82695
rtoes 0.780937
lfemur -26.9959 -5.84449 -10.0277
ltibia 13.2995
lfoot -5.81544 8.48823
ltoes -2.39823
55
root 0.385523 17.7636 -18.3649 0.478599 -8.60159 -6.72092
lowerback 11.1429 2.64808 6.08544
upperback 0.0824783 4.43471 2.16807
thorax -5.87917 2.0295 -1.83492
lowerneck -15.9997 -3.1256 -0.863231
upperneck 20.0846 -4.11056 -0.0238822
head 8.95165 -1.99588 -0.371175
rclavicle -7.56624e-015 6.75868e-015
rhumerus -19.9173 -7.14792 -83.1162
rradius 35.0537
rwrist -3.43805
rhand -20.2578 23.0191
rfingers 7.12502
rthumb 6.09097 -6.87333
lclavicle -7.56624e-015 6.75868e-015
lhumerus -37.3912 6.81192 81.6415
lradius 21.5053
lwrist 1.73713
lhand -28.8088 20.4326
lfingers 7.12502
lthumb -2.16704 50.4014
rfemur 8.62997 6.02952 34.2725
rtibia 23.5288
rfoot -19.3953 -5.65897
rtoes -0.161731
lfemur -26.8015 -4.83683 -10.6802
ltibia 13.3621
lfoot -5.77197 7.90031
ltoes -4.28727
56
root 0.391488 17.7664 -18.1663 0.378775 -8.57118 -6.59451
lowerback 11.0524 2.63224 5.90379
upperback 0.196915 4.37914 2.21457
thorax -5.72756 2.01512 -1.66886
lowerneck -16.2577 -3.06893 -0.990459
upperneck 20.1565 -3.99688 -0.0234844
head 9.02605 -1.9507 -0.341474
rclavicle 1.63625e-014 2.3059e-014
rhumerus -19.6937 -6.89938 -83.0787
rradius 35.2076
rwrist -3.48951
rhand -20.5185 22.6455
rfingers 7.12502
rthumb 5.83925 -7.25401
lclavicle 1.63625e-014 2.3059e-014
lhumerus -37.3863 7.51739 81.462
lradius 21.1712
lwrist 1.08289
lhand -28.5345 21.6773
lfingers 7.12502
lthumb -1.90215 51.6486
rfemur 9.065 6.24519 34.1468
rtibia 24.1603
rfoot -19.3562 -5.75235
rtoes -2.10694
lfemur -26.5403 -3.95265 -11.4494
ltibia 13.9023
lfoot -5.92109 6.88897
ltoes -4.91795
57
root 0.399759 17.7583 -17.9686 0.375549 -8.33099 -6.41058
lowerback 11.0437 2.5581 5.70161
upperback 0.0460845 4.26379 2.20997
thorax -5.90445 1.95659 -1.54895
lowerneck -16.051 -2.96042 -1.1437
upperneck 20.2805 -3.84315 0.118079
head 9.03686 -1.87541 -0.246802
rclavicle -2.75814e-015 1.43125e-014
rhumerus -19.8496 -6.77437 -83.029
rradius 35.1837
rwrist -3.4003
rhand -20.5854 22.5733
rfingers 7.12502
rthumb 5.77465 -7.32803
lclavicle -2.75814e-015 1.43125e-014
lhumerus -37.6083 8.0447 81.2592
lradius 20.6429
lwrist 0.568792
lhand -28.5506 21.673
lfingers 7.12502
lthumb -1.91773 51.6442
rfemur 9.37864 6.31111 33.916
rtibia 24.7659
rfoot -19.2558 -5.71948
rtoes -4.30545
lfemur -26.6636 -3.35386 -12.258
ltibia 15.079
lfoot -7.04365 6.44482
ltoes 4.55661
